<svg width="33" height="32" viewBox="0 0 33 32" fill="none" xmlns="http://www.w3.org/2000/svg">
<g clip-path="url(#clip0_75_54)">
<path fill-rule="evenodd" clip-rule="evenodd" d="M16.6625 31.9999L16.6768 31.9999H16.6719L16.6625 31.9999ZM16.7754 31.9999H16.7704L16.7848 31.9999L16.7754 31.9999ZM16.6136 31.9996L16.6291 31.9997H16.6202L16.6136 31.9996ZM16.8271 31.9997H16.8182L16.8336 31.9996L16.8271 31.9997ZM16.5665 31.9993L16.5768 31.9993L16.5686 31.9993H16.5665ZM16.8787 31.9993L16.8704 31.9993L16.8808 31.9993H16.8787ZM16.9303 31.9987L16.9267 31.9988L16.9406 31.9986L16.9303 31.9987ZM16.5066 31.9986L16.5206 31.9988L16.5169 31.9987L16.5066 31.9986ZM16.9819 31.9979L16.9734 31.9981L16.9906 31.9978L16.9819 31.9979ZM16.4566 31.9978L16.4738 31.9981L16.4654 31.9979L16.4566 31.9978ZM17.0334 31.9971L17.022 31.9972L17.0379 31.9969L17.0334 31.9971ZM16.4094 31.9969L16.4253 31.9972L16.4139 31.9971L16.4094 31.9969ZM16.3508 31.9958L16.3649 31.9961L16.3624 31.996L16.3508 31.9958ZM17.0849 31.996L17.0824 31.9961L17.0964 31.9958L17.0849 31.996ZM16.2994 31.9944L16.3188 31.9949L16.3109 31.9947L16.2994 31.9944ZM17.1363 31.9947L17.1285 31.9949L17.1478 31.9944L17.1363 31.9947ZM17.1878 31.9934L17.1752 31.9937L17.1949 31.9932L17.1878 31.9934ZM16.2523 31.9932L16.2721 31.9937L16.2595 31.9934L16.2523 31.9932ZM16.2073 31.9918L16.2214 31.9923L16.2081 31.9918L16.196 31.9914L16.2073 31.9918ZM17.2391 31.9918L17.2259 31.9923L17.2399 31.9918L17.2513 31.9914L17.2391 31.9918ZM17.2904 31.9901L17.2834 31.9904L17.305 31.9896L17.2904 31.9901ZM16.1423 31.9896L16.1638 31.9904L16.1568 31.9901L16.1423 31.9896ZM16.0954 31.9879L16.1181 31.9887L16.1055 31.9883L16.0954 31.9879ZM17.3418 31.9883L17.3292 31.9887L17.3518 31.9879L17.3418 31.9883ZM16.0495 31.986L16.0716 31.9869L16.0543 31.9862L16.0495 31.986ZM17.3929 31.9862L17.3756 31.9869L17.3978 31.986L17.3929 31.9862ZM15.9851 31.9832L16.0089 31.9842L16.0031 31.9841L15.9851 31.9832ZM17.4442 31.9841L17.4384 31.9842L17.4621 31.9832L17.4442 31.9841ZM15.9389 31.9811L15.9636 31.9822L15.9519 31.9817L15.9389 31.9811ZM17.4953 31.9817L17.4837 31.9822L17.5083 31.9811L17.4953 31.9817ZM15.8934 31.9788L15.9183 31.98L15.9008 31.9792L15.8934 31.9788ZM17.5464 31.9792L17.529 31.98L17.5538 31.9788L17.5464 31.9792ZM17.5976 31.9765L17.5749 31.9777L17.595 31.9766L17.6186 31.9753L17.5976 31.9765ZM15.8523 31.9766L15.8723 31.9777L15.8497 31.9765L15.8286 31.9753L15.8523 31.9766ZM17.6486 31.9736L17.6386 31.9742L17.6639 31.9727L17.6486 31.9736ZM15.7833 31.9727L15.8087 31.9742L15.7987 31.9736L15.7833 31.9727ZM15.7382 31.9701L15.7635 31.9716L15.7477 31.9707L15.7382 31.9701ZM17.6996 31.9707L17.6838 31.9716L17.7091 31.9701L17.6996 31.9707ZM15.6951 31.9674L15.7179 31.9688L15.6967 31.9675L15.6753 31.9661L15.6951 31.9674ZM17.7506 31.9675L17.7293 31.9688L17.7521 31.9674L17.7719 31.9661L17.7506 31.9675ZM17.8014 31.9642L17.7938 31.9647L17.818 31.9631L17.8014 31.9642ZM15.6293 31.9631L15.6534 31.9647L15.6458 31.9642L15.6293 31.9631ZM15.5842 31.9599L15.6079 31.9616L15.5949 31.9608L15.5842 31.9599ZM17.8523 31.9608L17.8393 31.9616L17.8631 31.9599L17.8523 31.9608ZM15.5393 31.9568L15.5611 31.9583L15.5441 31.9571L15.5393 31.9568ZM17.9031 31.9571L17.8862 31.9583L17.908 31.9568L17.9031 31.9571ZM15.4788 31.9522L15.4979 31.9536L15.4933 31.9533L15.4788 31.9522ZM17.9539 31.9533L17.9493 31.9536L17.9684 31.9522L17.9539 31.9533ZM18.0046 31.9494L17.9955 31.9501L18.0149 31.9485L18.0046 31.9494ZM15.4323 31.9485L15.4518 31.9501L15.4426 31.9494L15.4323 31.9485ZM15.387 31.9448L15.4035 31.9462L15.3919 31.9452L15.387 31.9448ZM18.0554 31.9452L18.0438 31.9462L18.0603 31.9448L18.0554 31.9452ZM15.3371 31.9406L15.3421 31.9411L15.3413 31.941L15.3371 31.9406ZM18.106 31.941L18.1052 31.9411L18.1101 31.9406L18.106 31.941ZM18.1566 31.9366L18.1521 31.9369L18.1634 31.9359L18.1566 31.9366ZM15.2838 31.9359L15.2951 31.9369L15.2906 31.9366L15.2838 31.9359ZM15.2369 31.9317L15.2454 31.9325L15.2401 31.932L15.2369 31.9317ZM18.2071 31.932L18.2019 31.9325L18.2103 31.9317L18.2071 31.932ZM14.2236 31.8054C6.5787 30.6038 0.723633 23.9802 0.723633 16C0.723633 7.16938 7.89301 0 16.7236 0C25.5543 0 32.7236 7.16938 32.7236 16C32.7236 23.9802 26.8686 30.6038 19.2236 31.8054V20.625H22.9518L23.6611 16H19.2236V12.9987C19.2236 11.7334 19.8435 10.5 21.8311 10.5H23.8486V6.5625C23.8486 6.5625 22.0176 6.25 20.2671 6.25C16.6123 6.25 14.2236 8.465 14.2236 12.475V16H10.1611V20.625H14.2236V31.8054Z" fill="#F6F0EA"/>
</g>
<defs>
<clipPath id="clip0_75_54">
<rect width="32" height="32" fill="white" transform="translate(0.723633)"/>
</clipPath>
</defs>
</svg>
