<svg width="33" height="32" viewBox="0 0 33 32" fill="none" xmlns="http://www.w3.org/2000/svg">
<g clip-path="url(#clip0_75_63)">
<path d="M1.20947 16.4849C1.20947 19.5535 2.11942 22.5532 3.82425 25.1046C5.52907 27.6561 7.95221 29.6447 10.7872 30.819C13.6223 31.9933 16.7418 32.3006 19.7515 31.7019C22.7611 31.1033 25.5257 29.6256 27.6955 27.4557C29.8653 25.2859 31.343 22.5214 31.9417 19.5117C32.5403 16.5021 32.2331 13.3825 31.0588 10.5475C29.8844 7.71246 27.8958 5.28933 25.3444 3.5845C22.7929 1.87967 19.7932 0.969727 16.7246 0.969727C12.6097 0.969727 8.66341 2.60435 5.75376 5.51401C2.8441 8.42366 1.20947 12.37 1.20947 16.4849Z" fill="#F6F0EA"/>
<path d="M17.6604 19.8012C18.1453 19.7575 19.0907 18.8703 19.5998 18.8315C20.0818 18.7881 20.5625 18.9264 20.9477 19.2194L22.2471 20.1891L23.0277 20.8097C23.1598 20.9089 23.2705 21.0338 23.3529 21.177C23.4354 21.3202 23.4879 21.4786 23.5074 21.6426C23.5269 21.8067 23.5129 21.973 23.4663 22.1315C23.4197 22.29 23.3414 22.4374 23.2362 22.5648L21.7283 24.5042C21.6719 24.5773 21.5977 24.6348 21.5129 24.6713C21.4281 24.7078 21.3353 24.722 21.2434 24.7127C14.698 24.126 9.49072 18.7685 9.49072 12.2618C9.49072 11.1132 9.65397 9.97047 9.97557 8.86785C9.99271 8.81308 10.0243 8.76394 10.0669 8.72555C10.1096 8.68717 10.1617 8.66096 10.218 8.64966L13.0834 8.24724C13.4125 8.17649 13.7562 8.23873 14.0396 8.42038C14.323 8.60204 14.5231 8.88837 14.5962 9.21694L14.7853 10.1818L15.1004 11.7624C15.1941 12.228 15.1019 12.7118 14.8435 13.1103C14.5816 13.5175 13.3453 13.9248 13.0786 14.3369C13.8112 16.7184 15.4591 18.7116 17.6604 19.8788V19.8012Z" stroke="#4E93B1" stroke-width="2" stroke-linecap="round" stroke-linejoin="round"/>
</g>
<defs>
<clipPath id="clip0_75_63">
<rect width="32" height="32" fill="white" transform="translate(0.724609)"/>
</clipPath>
</defs>
</svg>
