<svg width="33" height="32" viewBox="0 0 33 32" fill="none" xmlns="http://www.w3.org/2000/svg">
<g clip-path="url(#clip0_75_60)">
<path d="M16.0854 0C7.24889 0 0.0854492 7.16344 0.0854492 16C0.0854492 24.8366 7.24889 32 16.0854 32C24.922 32 32.0854 24.8366 32.0854 16C32.0854 7.16344 24.922 0 16.0854 0ZM24.1867 14.5239C22.4877 14.5239 20.8346 13.9725 19.5617 13.0395L19.5516 19.3832C19.5505 20.5587 19.191 21.7059 18.521 22.6717C17.851 23.6376 16.9024 24.3761 15.8018 24.7888C14.7011 25.2015 13.5008 25.2687 12.361 24.9814C11.2211 24.6942 10.196 24.0662 9.42237 23.1812C8.64875 22.2962 8.16342 21.1963 8.03115 20.0283C7.89888 18.8603 8.12597 17.6797 8.6821 16.6441C9.23823 15.6085 10.097 14.7672 11.1437 14.2323C12.1904 13.6975 13.3754 13.4946 14.5404 13.6507V16.766C13.9909 16.6036 13.4041 16.6184 12.8634 16.8083C12.3227 16.9981 11.8555 17.3534 11.5281 17.8237C11.2007 18.294 11.0296 18.8555 11.0392 19.4285C11.0488 20.0014 11.2386 20.5568 11.5816 21.0159C11.9246 21.475 12.4034 21.8144 12.9501 21.9861C13.4969 22.1577 14.0838 22.1528 14.6276 21.9722C15.1715 21.7915 15.6446 21.4442 15.98 20.9795C16.3153 20.5148 16.4958 19.9563 16.4959 19.3832V6.83331H19.7006C19.7006 7.4224 19.8167 8.00573 20.0421 8.54997C20.2675 9.09422 20.598 9.58874 21.0145 10.0053C21.4311 10.4218 21.9256 10.7523 22.4698 10.9777C23.0141 11.2031 23.5974 11.3191 24.1865 11.3191L24.1867 14.5239Z" fill="#F6F0EA"/>
</g>
<defs>
<clipPath id="clip0_75_60">
<rect width="32" height="32" fill="white" transform="translate(0.0854492)"/>
</clipPath>
</defs>
</svg>
