<svg width="33" height="32" viewBox="0 0 33 32" fill="none" xmlns="http://www.w3.org/2000/svg">
<g clip-path="url(#clip0_75_58)">
<path fill-rule="evenodd" clip-rule="evenodd" d="M16.3618 0C25.1924 0 32.3618 7.16938 32.3618 16C32.3618 24.8306 25.1924 32 16.3618 32C7.53119 32 0.361816 24.8306 0.361816 16C0.361816 7.16938 7.53119 0 16.3618 0ZM23.9573 8.42775C22.0419 6.51075 19.4947 5.45456 16.7809 5.4535C11.1891 5.4535 6.63813 10.0027 6.63594 15.5945C6.63519 17.3819 7.10232 19.1268 7.99007 20.6646L6.55082 25.92L11.9288 24.5098C13.4106 25.3177 15.0789 25.7434 16.7768 25.7442H16.781C22.3722 25.7442 26.9236 21.1944 26.9258 15.6026C26.9269 12.8927 25.8726 10.3446 23.9573 8.42775ZM16.7809 24.0313H16.7776C15.2645 24.0307 13.7805 23.6244 12.4859 22.8564L12.1779 22.6736L8.98663 23.5106L9.83844 20.4L9.63794 20.0811C8.79388 18.7391 8.34813 17.1878 8.34875 15.5951C8.35063 10.9475 12.1333 7.16631 16.7843 7.16631C19.0365 7.16719 21.1536 8.04519 22.7456 9.63844C24.3376 11.2317 25.2138 13.3496 25.2129 15.6019C25.2111 20.2499 21.4285 24.0312 16.7809 24.0313ZM21.4061 17.7182C21.1526 17.5914 19.9064 16.9783 19.6739 16.8937C19.4416 16.8092 19.2727 16.7669 19.1037 17.0206C18.9347 17.2743 18.4489 17.8451 18.301 18.0142C18.1532 18.1832 18.0053 18.2045 17.7518 18.0776C17.4983 17.9508 16.6816 17.6832 15.7134 16.8198C14.9598 16.1479 14.4511 15.318 14.3032 15.0644C14.1554 14.8107 14.2874 14.6736 14.4144 14.5472C14.5284 14.4337 14.6678 14.2512 14.7946 14.1032C14.9213 13.9552 14.9636 13.8496 15.0481 13.6805C15.1326 13.5113 15.0903 13.3634 15.0269 13.2365C14.9636 13.1097 14.4566 11.8624 14.2454 11.355C14.0397 10.8609 13.8307 10.9277 13.6751 10.92C13.5274 10.9126 13.3583 10.9111 13.1893 10.9111C13.0203 10.9111 12.7457 10.9745 12.5133 11.2282C12.2809 11.4819 11.6261 12.0949 11.6261 13.3422C11.6261 14.5895 12.5344 15.7944 12.6612 15.9636C12.7879 16.1327 14.4486 18.6923 16.9914 19.7899C17.5962 20.051 18.0684 20.2069 18.4365 20.3237C19.0438 20.5166 19.5963 20.4894 20.0331 20.4241C20.5201 20.3514 21.5329 19.8111 21.7441 19.2192C21.9553 18.6272 21.9553 18.1199 21.8919 18.0142C21.8286 17.9085 21.6596 17.8451 21.4061 17.7182Z" fill="#F6F0EA"/>
</g>
<defs>
<clipPath id="clip0_75_58">
<rect width="32" height="32" fill="white" transform="translate(0.361816)"/>
</clipPath>
</defs>
</svg>
